<svg width="1200" height="600" viewBox="0 0 1200 600" fill="none" xmlns="http://www.w3.org/2000/svg">
<path d="M642.446 293.938V368.094H655.576V341.51H672.474C688.834 341.51 695.829 329.778 695.829 317.724C695.829 305.885 688.834 293.938 672.474 293.938H642.446ZM655.576 329.67V305.669H672.151C679.685 305.669 682.699 311.912 682.699 317.724C682.699 323.751 679.578 329.67 671.828 329.67H655.576Z" fill="#083B58"/>
<path d="M768.719 368.094L749.454 340.648C760.755 339.142 767.75 328.379 767.75 317.724C767.75 305.885 760.755 293.938 744.18 293.938H715.12V368.094H728.251V341.079H734.924L753.221 368.094H768.719ZM743.211 305.669C750.422 305.669 754.62 311.158 754.62 317.939C754.62 324.719 750.745 329.993 741.489 329.993H728.251V305.669H743.211Z" fill="#083B58"/>
<path d="M802.289 337.635H830.703V325.688H802.289V305.669H834.793V293.938H789.266V368.094H835.869V356.362H802.289V337.635Z" fill="#083B58"/>
<path d="M879.382 369.385C893.912 369.385 905.213 360.344 905.213 346.783C905.213 334.944 896.28 328.917 884.656 325.688L875.83 323.105C867.328 320.845 866.682 316.54 866.682 314.495C866.682 308.683 871.956 304.378 878.306 304.378C885.194 304.378 889.822 308.79 889.822 314.925H902.845C902.845 301.041 892.19 292.646 878.629 292.646C864.96 292.646 853.444 301.579 853.444 314.71C853.444 321.168 856.242 330.747 872.171 334.837L881.427 337.42C887.669 339.142 892.082 342.155 892.082 347.321C892.082 353.133 887.239 357.761 879.705 357.761C871.525 357.761 866.036 352.488 865.929 346.676H852.906C852.906 359.268 863.561 369.385 879.382 369.385Z" fill="#083B58"/>
<path d="M948.062 369.385C962.592 369.385 973.893 360.344 973.893 346.783C973.893 334.944 964.96 328.917 953.336 325.688L944.511 323.105C936.008 320.845 935.362 316.54 935.362 314.495C935.362 308.683 940.636 304.378 946.986 304.378C953.874 304.378 958.502 308.79 958.502 314.925H971.525C971.525 301.041 960.87 292.646 947.309 292.646C933.64 292.646 922.124 301.579 922.124 314.71C922.124 321.168 924.922 330.747 940.851 334.837L950.107 337.42C956.35 339.142 960.763 342.155 960.763 347.321C960.763 353.133 955.919 357.761 948.385 357.761C940.206 357.761 934.716 352.488 934.609 346.676H921.586C921.586 359.268 932.241 369.385 948.062 369.385Z" fill="#083B58"/>
<path d="M600.494 328.976L623.741 294.427H608.028L592.637 318.428L577.353 294.427H561.64L584.78 328.868L559.057 368.583H574.555L592.637 339.524L610.718 368.583H626.217L600.494 328.976Z" fill="#C33426"/>
<path d="M532.311 220.427H501.529V189H488.398V263.156H501.529V232.159H532.311V263.156H545.441V189H532.311V220.427Z" fill="#083B58"/>
<path d="M583.871 232.697H612.285V220.75H583.871V200.731H616.374V189H570.848V263.156H617.451V251.424H583.871V232.697Z" fill="#083B58"/>
<path d="M698.849 263.156L671.081 189H656.874L628.998 263.156H642.99L649.34 244.967H678.507L684.965 263.156H698.849ZM663.977 203.422L674.525 233.558H653.322L663.977 203.422Z" fill="#083B58"/>
<path d="M727.54 189H714.41V263.156H756.385V251.424H727.54V189Z" fill="#083B58"/>
<path d="M758.324 189V200.731H779.526V263.156H792.657V200.731H813.86V189H758.324Z" fill="#083B58"/>
<path d="M875.818 220.427H845.036V189H831.905V263.156H845.036V232.159H875.818V263.156H888.948V189H875.818V220.427Z" fill="#083B58"/>
<path fill-rule="evenodd" clip-rule="evenodd" d="M339.814 439.598C341.139 440.987 342.463 441.451 344.23 441.451C345.996 441.451 347.321 440.987 348.645 439.598C349.97 438.208 363.704 425.058 363.704 425.058C366.353 422.742 366.795 418.109 364.145 415.33C361.938 412.55 357.522 412.087 354.873 414.867L343.788 425.7L277.469 356.268H290.648C293.115 356.268 305.436 355.096 306.9 353.11L319.284 336.312C320.44 334.743 322.751 334.651 324.029 336.121L337.822 351.997C340.25 354.792 343.834 356.31 347.532 356.11L355.268 355.152C356.39 355.091 357.454 355.654 358.035 356.615L371.335 378.601C375.168 384.936 384.853 382.824 385.697 375.469L393.851 304.451L406.994 414.98C408.013 423.551 420.165 424.31 422.244 415.933L441.494 338.368C441.663 337.69 442.272 337.213 442.971 337.213H523.935C526.382 340.905 530.574 343.34 535.335 343.34C542.882 343.34 549 337.221 549 329.674C549 322.127 542.882 316.009 535.335 316.009C529.615 316.009 524.716 319.523 522.679 324.51H452.293C457.148 316.993 461.219 309.601 462.522 304.471C466.055 285.941 461.686 267.001 451.972 251.25C442.257 235.499 426.803 224.844 409.14 221.138C384.854 216.042 359.685 228.594 344.23 248.051C328.333 228.594 303.606 216.042 279.32 221.138C261.657 224.844 246.644 235.499 236.488 251.25C226.332 267.001 222.799 285.994 226.332 304.524C228.54 318.422 235.163 330.93 244.877 341.122L339.814 439.598ZM253.709 331.393L265.335 343.565H298.15L313.922 322.17C317.41 317.438 324.387 317.159 328.242 321.596L347.191 343.407L356.828 342.346C361.254 342.106 365.453 344.326 367.747 348.118L372.416 355.837C373.167 357.078 375.064 356.664 375.229 355.223L386.049 260.983C387.099 251.831 400.389 251.805 401.477 260.952L415.439 378.37C415.639 380.05 418.018 380.198 418.426 378.557L429.578 333.619C430.3 330.71 432.05 328.272 434.383 326.653C440.435 318.167 447.715 307.186 448.881 302.208C451.53 287.384 448.881 272.096 440.491 259.589C432.543 247.081 420.179 238.279 406.049 235.499C383.971 230.867 361.009 244.345 349.529 264.728C348.204 266.581 345.996 267.971 343.788 267.971C341.58 267.971 339.372 266.581 338.048 264.728C326.126 244.345 303.606 231.33 281.527 235.499C267.397 238.279 255.033 247.081 247.085 259.589C239.137 272.096 236.046 287.384 238.696 302.208C240.903 313.326 245.761 323.518 253.709 331.393Z" fill="#C33426"/>
<path d="M653.76 413.44H649.52L640.6 432.4L631.64 413.44H627.4L624.04 441H628.92L631.16 422.52L638.64 437.88H642.6L650.04 422.48L652.24 441H657.12L653.76 413.44ZM669.108 429.68H679.668V425.24H669.108V417.8H681.188V413.44H664.268V441H681.588V436.64H669.108V429.68ZM688.72 413.44V441H699.52C707.4 441 712 435.08 712 427.28C712 419.44 707.4 413.44 699.52 413.44H688.72ZM693.6 436.64V417.8H699.52C704.52 417.8 707.08 422.12 707.08 427.28C707.08 432.4 704.52 436.64 699.52 436.64H693.6ZM723.911 441V413.44H719.031V441H723.911ZM744.785 441.48C749.305 441.48 753.265 439.36 755.745 436.12L752.065 433.32C750.385 435.52 747.905 436.92 744.905 436.92C739.585 436.92 735.705 432.52 735.705 427.24C735.705 421.96 739.665 417.52 744.905 417.52C747.905 417.52 750.385 418.92 752.065 421.12L755.745 418.32C753.265 415.08 749.305 412.96 744.785 412.96C737.025 412.96 730.785 419.44 730.785 427.24C730.785 435.04 737.025 441.48 744.785 441.48ZM784.278 441L773.958 413.44H768.678L758.317 441H763.518L765.878 434.24H776.718L779.118 441H784.278ZM771.318 418.8L775.238 430H767.358L771.318 418.8ZM794.141 413.44H789.261V441H804.861V436.64H794.141V413.44ZM833.138 441.48C837.658 441.48 841.618 439.36 844.098 436.12L840.418 433.32C838.738 435.52 836.258 436.92 833.258 436.92C827.938 436.92 824.058 432.52 824.058 427.24C824.058 421.96 828.018 417.52 833.258 417.52C836.258 417.52 838.738 418.92 840.418 421.12L844.098 418.32C841.618 415.08 837.658 412.96 833.138 412.96C825.378 412.96 819.138 419.44 819.138 427.24C819.138 435.04 825.378 441.48 833.138 441.48ZM855.151 429.68H865.711V425.24H855.151V417.8H867.231V413.44H850.311V441H867.631V436.64H855.151V429.68ZM890.202 431.84L879.362 413.44H874.762V441H879.642V422.44L890.642 441H895.082V413.44H890.202V431.84ZM900.986 413.44V417.8H908.866V441H913.746V417.8H921.626V413.44H900.986ZM932.373 429.68H942.933V425.24H932.373V417.8H944.453V413.44H927.533V441H944.853V436.64H932.373V429.68ZM971.904 441L964.744 430.8C968.944 430.24 971.544 426.24 971.544 422.28C971.544 417.88 968.944 413.44 962.784 413.44H951.984V441H956.864V430.96H959.344L966.144 441H971.904ZM962.424 417.8C965.104 417.8 966.664 419.84 966.664 422.36C966.664 424.88 965.224 426.84 961.784 426.84H956.864V417.8H962.424Z" fill="#C33426"/>
</svg>
